<svg width="98" height="24" viewBox="0 0 98 24" fill="none" xmlns="http://www.w3.org/2000/svg">
<path d="M15.2979 23.1362C14.1032 23.1362 13.0152 22.8695 12.0339 22.3362C11.0739 21.7815 10.3165 21.0242 9.76188 20.0642C9.22854 19.0828 8.96188 17.9628 8.96188 16.7042V5.98418C8.96188 5.49351 8.84454 5.05618 8.60988 4.67218C8.37521 4.26685 8.05521 3.94685 7.64988 3.71218C7.26588 3.47751 6.83921 3.36018 6.36987 3.36018C5.90054 3.36018 5.47388 3.47751 5.08988 3.71218C4.70588 3.94685 4.39654 4.26685 4.16188 4.67218C3.92721 5.05618 3.80988 5.49351 3.80988 5.98418V22.7842H0.00187516V6.46418C0.00187516 5.24818 0.268542 4.16018 0.801875 3.20018C1.33521 2.21884 2.08188 1.44018 3.04188 0.864178C4.00188 0.288179 5.11121 0.000179291 6.36987 0.000179291C7.64988 0.000179291 8.76988 0.288179 9.72988 0.864178C10.6899 1.44018 11.4365 2.21884 11.9699 3.20018C12.5032 4.16018 12.7699 5.24818 12.7699 6.46418V17.1842C12.7699 17.6535 12.8872 18.0908 13.1219 18.4962C13.3565 18.8802 13.6659 19.1895 14.0499 19.4242C14.4339 19.6588 14.8499 19.7762 15.2979 19.7762C15.7672 19.7762 16.1939 19.6588 16.5779 19.4242C16.9619 19.1895 17.2712 18.8802 17.5059 18.4962C17.7405 18.0908 17.8579 17.6535 17.8579 17.1842V6.46418C17.8579 5.24818 18.1245 4.16018 18.6579 3.20018C19.1912 2.21884 19.9379 1.44018 20.8979 0.864178C21.8792 0.288179 22.9992 0.000179291 24.2579 0.000179291C25.5379 0.000179291 26.6472 0.288179 27.5859 0.864178C28.5459 1.44018 29.2925 2.21884 29.8259 3.20018C30.3592 4.16018 30.6259 5.24818 30.6259 6.46418V22.7842H26.7859V5.98418C26.7859 5.49351 26.6685 5.05618 26.4339 4.67218C26.2205 4.26685 25.9219 3.94685 25.5379 3.71218C25.1539 3.47751 24.7272 3.36018 24.2579 3.36018C23.7885 3.36018 23.3512 3.47751 22.9459 3.71218C22.5619 3.94685 22.2525 4.26685 22.0179 4.67218C21.7832 5.05618 21.6659 5.49351 21.6659 5.98418V16.7042C21.6659 17.9628 21.3885 19.0828 20.8339 20.0642C20.2792 21.0242 19.5219 21.7815 18.5619 22.3362C17.6232 22.8695 16.5352 23.1362 15.2979 23.1362ZM40.8951 23.1682C39.3378 23.1682 37.9938 22.7842 36.8631 22.0162C35.7325 21.2482 34.8578 20.2242 34.2391 18.9442C33.6418 17.6428 33.3431 16.2135 33.3431 14.6562C33.3431 13.0348 33.6845 11.5842 34.3671 10.3042C35.0711 9.00285 36.0631 7.97885 37.3431 7.23218C38.6445 6.46418 40.1911 6.08018 41.9831 6.08018C43.7538 6.08018 45.2578 6.46418 46.4951 7.23218C47.7538 7.97885 48.7138 9.00285 49.3751 10.3042C50.0578 11.5842 50.3991 13.0135 50.3991 14.5922V22.7842H46.7191V19.7442H46.6551C46.3351 20.3415 45.9191 20.9068 45.4071 21.4402C44.8951 21.9522 44.2658 22.3682 43.5191 22.6882C42.7725 23.0082 41.8978 23.1682 40.8951 23.1682ZM41.8871 20.0322C42.8471 20.0322 43.6791 19.7975 44.3831 19.3282C45.1085 18.8375 45.6631 18.1868 46.0471 17.3762C46.4525 16.5442 46.6551 15.6162 46.6551 14.5922C46.6551 13.5682 46.4631 12.6615 46.0791 11.8722C45.6951 11.0615 45.1511 10.4215 44.4471 9.95218C43.7431 9.46151 42.9005 9.21618 41.9191 9.21618C40.8951 9.21618 40.0205 9.46151 39.2951 9.95218C38.5698 10.4215 38.0151 11.0615 37.6311 11.8722C37.2471 12.6828 37.0551 13.6002 37.0551 14.6242C37.0551 15.6268 37.2471 16.5442 37.6311 17.3762C38.0151 18.1868 38.5591 18.8375 39.2631 19.3282C39.9885 19.7975 40.8631 20.0322 41.8871 20.0322ZM59.8891 23.1682C59.0358 23.1682 58.2678 22.9335 57.5851 22.4642C56.9238 21.9948 56.4438 21.3655 56.1451 20.5762L51.1531 6.46418H55.1531L59.4091 19.1362C59.4731 19.2855 59.5478 19.3922 59.6331 19.4562C59.7185 19.5202 59.8145 19.5522 59.9211 19.5522C60.0278 19.5522 60.1238 19.5202 60.2091 19.4562C60.3158 19.3922 60.3905 19.2855 60.4331 19.1362L64.7211 6.46418H68.6571L63.6331 20.5762C63.3558 21.3655 62.8758 21.9948 62.1931 22.4642C61.5105 22.9335 60.7425 23.1682 59.8891 23.1682ZM70.5819 22.7842V11.1042C70.5819 9.65351 70.9872 8.52285 71.7979 7.71218C72.6299 6.88018 73.7712 6.46418 75.2219 6.46418H79.1579V9.60018H75.8939C75.3819 9.60018 74.9765 9.74951 74.6779 10.0482C74.4005 10.3468 74.2619 10.7522 74.2619 11.2642V22.7842H70.5819ZM88.8459 23.1682C87.1605 23.1682 85.6672 22.7948 84.3659 22.0482C83.0645 21.2802 82.0299 20.2562 81.2619 18.9762C80.5152 17.6748 80.1419 16.2242 80.1419 14.6242C80.1419 13.0242 80.5152 11.5842 81.2619 10.3042C82.0299 9.00285 83.0645 7.97885 84.3659 7.23218C85.6672 6.46418 87.1605 6.08018 88.8459 6.08018C90.5099 6.08018 91.9925 6.46418 93.2939 7.23218C94.5952 7.97885 95.6192 8.99218 96.3659 10.2722C97.1339 11.5522 97.5179 13.0028 97.5179 14.6242C97.5179 16.2242 97.1339 17.6748 96.3659 18.9762C95.6192 20.2562 94.5952 21.2802 93.2939 22.0482C91.9925 22.7948 90.5099 23.1682 88.8459 23.1682ZM88.8459 20.0322C89.8485 20.0322 90.7232 19.7975 91.4699 19.3282C92.2165 18.8375 92.7925 18.1868 93.1979 17.3762C93.6032 16.5655 93.8059 15.6482 93.8059 14.6242C93.8059 13.6215 93.6032 12.7148 93.1979 11.9042C92.7925 11.0722 92.2165 10.4215 91.4699 9.95218C90.7232 9.46151 89.8485 9.21618 88.8459 9.21618C87.8219 9.21618 86.9365 9.46151 86.1899 9.95218C85.4645 10.4215 84.8885 11.0615 84.4619 11.8722C84.0565 12.6828 83.8539 13.6002 83.8539 14.6242C83.8539 15.6268 84.0565 16.5442 84.4619 17.3762C84.8885 18.1868 85.4645 18.8375 86.1899 19.3282C86.9365 19.7975 87.8219 20.0322 88.8459 20.0322Z" fill="white"/>
</svg>
