<svg width="98" height="24" viewBox="0 0 98 24" fill="none" xmlns="http://www.w3.org/2000/svg">
<path d="M15.2979 23.1359C14.1032 23.1359 13.0152 22.8693 12.0339 22.3359C11.0739 21.7813 10.3165 21.0239 9.76188 20.0639C9.22854 19.0826 8.96188 17.9626 8.96188 16.7039V5.98393C8.96188 5.49327 8.84454 5.05593 8.60988 4.67193C8.37521 4.2666 8.05521 3.9466 7.64988 3.71194C7.26588 3.47727 6.83921 3.35993 6.36987 3.35993C5.90054 3.35993 5.47388 3.47727 5.08988 3.71194C4.70588 3.9466 4.39654 4.2666 4.16188 4.67193C3.92721 5.05593 3.80988 5.49327 3.80988 5.98393V22.7839H0.00187516V6.46393C0.00187516 5.24793 0.268542 4.15993 0.801875 3.19993C1.33521 2.2186 2.08188 1.43993 3.04188 0.863934C4.00188 0.287935 5.11121 -6.48499e-05 6.36987 -6.48499e-05C7.64988 -6.48499e-05 8.76988 0.287935 9.72988 0.863934C10.6899 1.43993 11.4365 2.2186 11.9699 3.19993C12.5032 4.15993 12.7699 5.24793 12.7699 6.46393V17.1839C12.7699 17.6533 12.8872 18.0906 13.1219 18.4959C13.3565 18.8799 13.6659 19.1893 14.0499 19.4239C14.4339 19.6586 14.8499 19.7759 15.2979 19.7759C15.7672 19.7759 16.1939 19.6586 16.5779 19.4239C16.9619 19.1893 17.2712 18.8799 17.5059 18.4959C17.7405 18.0906 17.8579 17.6533 17.8579 17.1839V6.46393C17.8579 5.24793 18.1245 4.15993 18.6579 3.19993C19.1912 2.2186 19.9379 1.43993 20.8979 0.863934C21.8792 0.287935 22.9992 -6.48499e-05 24.2579 -6.48499e-05C25.5379 -6.48499e-05 26.6472 0.287935 27.5859 0.863934C28.5459 1.43993 29.2925 2.2186 29.8259 3.19993C30.3592 4.15993 30.6259 5.24793 30.6259 6.46393V22.7839H26.7859V5.98393C26.7859 5.49327 26.6685 5.05593 26.4339 4.67193C26.2205 4.2666 25.9219 3.9466 25.5379 3.71194C25.1539 3.47727 24.7272 3.35993 24.2579 3.35993C23.7885 3.35993 23.3512 3.47727 22.9459 3.71194C22.5619 3.9466 22.2525 4.2666 22.0179 4.67193C21.7832 5.05593 21.6659 5.49327 21.6659 5.98393V16.7039C21.6659 17.9626 21.3885 19.0826 20.8339 20.0639C20.2792 21.0239 19.5219 21.7813 18.5619 22.3359C17.6232 22.8693 16.5352 23.1359 15.2979 23.1359ZM40.8951 23.1679C39.3378 23.1679 37.9938 22.7839 36.8631 22.0159C35.7325 21.2479 34.8578 20.2239 34.2391 18.9439C33.6418 17.6426 33.3431 16.2133 33.3431 14.6559C33.3431 13.0346 33.6845 11.5839 34.3671 10.3039C35.0711 9.0026 36.0631 7.9786 37.3431 7.23193C38.6445 6.46393 40.1911 6.07994 41.9831 6.07994C43.7538 6.07994 45.2578 6.46393 46.4951 7.23193C47.7538 7.9786 48.7138 9.0026 49.3751 10.3039C50.0578 11.5839 50.3991 13.0133 50.3991 14.5919V22.7839H46.7191V19.7439H46.6551C46.3351 20.3413 45.9191 20.9066 45.4071 21.4399C44.8951 21.9519 44.2658 22.3679 43.5191 22.6879C42.7725 23.0079 41.8978 23.1679 40.8951 23.1679ZM41.8871 20.0319C42.8471 20.0319 43.6791 19.7973 44.3831 19.3279C45.1085 18.8373 45.6631 18.1866 46.0471 17.3759C46.4525 16.5439 46.6551 15.6159 46.6551 14.5919C46.6551 13.5679 46.4631 12.6613 46.0791 11.8719C45.6951 11.0613 45.1511 10.4213 44.4471 9.95193C43.7431 9.46127 42.9005 9.21593 41.9191 9.21593C40.8951 9.21593 40.0205 9.46127 39.2951 9.95193C38.5698 10.4213 38.0151 11.0613 37.6311 11.8719C37.2471 12.6826 37.0551 13.5999 37.0551 14.6239C37.0551 15.6266 37.2471 16.5439 37.6311 17.3759C38.0151 18.1866 38.5591 18.8373 39.2631 19.3279C39.9885 19.7973 40.8631 20.0319 41.8871 20.0319ZM59.8891 23.1679C59.0358 23.1679 58.2678 22.9333 57.5851 22.4639C56.9238 21.9946 56.4438 21.3653 56.1451 20.5759L51.1531 6.46393H55.1531L59.4091 19.1359C59.4731 19.2853 59.5478 19.3919 59.6331 19.4559C59.7185 19.5199 59.8145 19.5519 59.9211 19.5519C60.0278 19.5519 60.1238 19.5199 60.2091 19.4559C60.3158 19.3919 60.3905 19.2853 60.4331 19.1359L64.7211 6.46393H68.6571L63.6331 20.5759C63.3558 21.3653 62.8758 21.9946 62.1931 22.4639C61.5105 22.9333 60.7425 23.1679 59.8891 23.1679ZM70.5819 22.7839V11.1039C70.5819 9.65327 70.9872 8.5226 71.7979 7.71194C72.6299 6.87993 73.7712 6.46393 75.2219 6.46393H79.1579V9.59993H75.8939C75.3819 9.59993 74.9765 9.74927 74.6779 10.0479C74.4005 10.3466 74.2619 10.7519 74.2619 11.2639V22.7839H70.5819ZM88.8459 23.1679C87.1605 23.1679 85.6672 22.7946 84.3659 22.0479C83.0645 21.2799 82.0299 20.2559 81.2619 18.9759C80.5152 17.6746 80.1419 16.2239 80.1419 14.6239C80.1419 13.0239 80.5152 11.5839 81.2619 10.3039C82.0299 9.0026 83.0645 7.9786 84.3659 7.23193C85.6672 6.46393 87.1605 6.07994 88.8459 6.07994C90.5099 6.07994 91.9925 6.46393 93.2939 7.23193C94.5952 7.9786 95.6192 8.99193 96.3659 10.2719C97.1339 11.5519 97.5179 13.0026 97.5179 14.6239C97.5179 16.2239 97.1339 17.6746 96.3659 18.9759C95.6192 20.2559 94.5952 21.2799 93.2939 22.0479C91.9925 22.7946 90.5099 23.1679 88.8459 23.1679ZM88.8459 20.0319C89.8485 20.0319 90.7232 19.7973 91.4699 19.3279C92.2165 18.8373 92.7925 18.1866 93.1979 17.3759C93.6032 16.5653 93.8059 15.6479 93.8059 14.6239C93.8059 13.6213 93.6032 12.7146 93.1979 11.9039C92.7925 11.0719 92.2165 10.4213 91.4699 9.95193C90.7232 9.46127 89.8485 9.21593 88.8459 9.21593C87.8219 9.21593 86.9365 9.46127 86.1899 9.95193C85.4645 10.4213 84.8885 11.0613 84.4619 11.8719C84.0565 12.6826 83.8539 13.5999 83.8539 14.6239C83.8539 15.6266 84.0565 16.5439 84.4619 17.3759C84.8885 18.1866 85.4645 18.8373 86.1899 19.3279C86.9365 19.7973 87.8219 20.0319 88.8459 20.0319Z" fill="#192434"/>
</svg>
